<svg width="24" height="24" viewBox="0 0 24 24" fill="none" xmlns="http://www.w3.org/2000/svg">
<g clip-path="url(#clip0_479_20333)">
<path d="M12.3503 5.22008C12.2569 5.12846 12.1312 5.07715 12.0003 5.07715C11.8695 5.07715 11.7438 5.12846 11.6503 5.22008L2.65035 13.8301C2.52835 13.9465 2.43778 14.0919 2.38708 14.2528C2.33638 14.4137 2.32718 14.5847 2.36035 14.7501L3.70035 21.5901C3.83663 22.2695 4.20395 22.8809 4.7399 23.3202C5.27584 23.7595 5.94735 23.9998 6.64035 24.0001H17.3603C18.0533 23.9998 18.7249 23.7595 19.2608 23.3202C19.7967 22.8809 20.1641 22.2695 20.3003 21.5901L21.6603 14.7501C21.6935 14.5847 21.6843 14.4137 21.6336 14.2528C21.5829 14.0919 21.4923 13.9465 21.3703 13.8301L12.3503 5.22008ZM12.0003 12.7701C12.6392 12.7701 13.2637 12.9595 13.7948 13.3144C14.326 13.6693 14.74 14.1738 14.9845 14.764C15.2289 15.3542 15.2929 16.0037 15.1683 16.6302C15.0437 17.2568 14.736 17.8323 14.2843 18.284C13.8326 18.7358 13.257 19.0434 12.6305 19.168C12.0039 19.2926 11.3545 19.2287 10.7643 18.9842C10.1741 18.7397 9.66962 18.3257 9.3147 17.7946C8.95978 17.2634 8.77035 16.6389 8.77035 16.0001C8.77035 15.1434 9.11065 14.3219 9.71639 13.7161C10.3221 13.1104 11.1437 12.7701 12.0003 12.7701V12.7701Z" fill="#DBDBDB"/>
<path d="M2.52019 11.6L11.6502 3.14C11.7453 3.04775 11.8727 2.99616 12.0052 2.99616C12.1377 2.99616 12.265 3.04775 12.3602 3.14L21.4802 11.58C21.6179 11.7437 21.7889 11.876 21.9819 11.9682C22.1749 12.0603 22.3854 12.1101 22.5993 12.1143C22.8131 12.1184 23.0253 12.0767 23.2218 11.9921C23.4182 11.9075 23.5942 11.7818 23.7381 11.6235C23.882 11.4653 23.9903 11.2781 24.0559 11.0745C24.1215 10.871 24.1428 10.6557 24.1184 10.4432C24.0939 10.2308 24.0244 10.026 23.9143 9.84258C23.8042 9.6592 23.6562 9.50148 23.4802 9.38L14.4202 0.999996C13.7698 0.382411 12.9071 0.0380859 12.0102 0.0380859C11.1133 0.0380859 10.2506 0.382411 9.60019 0.999996L0.480189 9.4C0.335719 9.53393 0.219049 9.69502 0.13684 9.87405C0.0546318 10.0531 0.00849578 10.2466 0.00106691 10.4434C-0.00636196 10.6403 0.0250618 10.8367 0.0935437 11.0214C0.162026 11.2061 0.266224 11.3756 0.400189 11.52C0.67717 11.8003 1.05054 11.9647 1.44436 11.9795C1.83818 11.9944 2.22287 11.8587 2.52019 11.6V11.6Z" fill="#DBDBDB"/>
</g>
<defs>
<clipPath id="clip0_479_20333">
<rect width="24" height="24" fill="white"/>
</clipPath>
</defs>
</svg>
