<svg width="26" height="26" viewBox="0 0 26 26" fill="none" xmlns="http://www.w3.org/2000/svg">
<path d="M8.93742 3.79167H11.3749C11.8777 3.79167 12.3599 3.59193 12.7155 3.23639C13.071 2.88085 13.2708 2.39864 13.2708 1.89583C13.2708 1.39303 13.071 0.910814 12.7155 0.555277C12.3599 0.199739 11.8777 0 11.3749 0H7.58325C7.36776 0 7.1611 0.0856024 7.00873 0.237976C6.85635 0.390349 6.77075 0.597012 6.77075 0.8125V5.14583H8.93742V3.79167Z" fill="white"/>
<path d="M22.0134 6.771H9.45752C9.4074 6.77062 9.35824 6.78474 9.31596 6.81164C9.27367 6.83855 9.24007 6.87711 9.21918 6.92267C9.19335 6.9651 9.17969 7.01383 9.17969 7.0635C9.17969 7.11318 9.19335 7.1619 9.21918 7.20434C9.91015 8.08628 10.2909 9.17151 10.3025 10.2918V17.8752C10.3025 17.947 10.3311 18.0159 10.3818 18.0667C10.4326 18.1175 10.5015 18.146 10.5734 18.146H13.5417C13.6135 18.146 13.6824 18.1745 13.7332 18.2253C13.784 18.2761 13.8125 18.345 13.8125 18.4168V24.9168C13.8125 25.2042 13.9267 25.4797 14.1298 25.6829C14.333 25.886 14.6085 26.0002 14.8959 26.0002C15.1832 26.0002 15.4587 25.886 15.6619 25.6829C15.865 25.4797 15.9792 25.2042 15.9792 24.9168V18.4168C15.9792 18.345 16.0077 18.2761 16.0585 18.2253C16.1093 18.1745 16.1782 18.146 16.25 18.146H24.1259C24.16 18.1446 24.1936 18.1365 24.2246 18.1221C24.2556 18.1078 24.2835 18.0874 24.3066 18.0623C24.3297 18.0371 24.3477 18.0076 24.3594 17.9755C24.3712 17.9434 24.3765 17.9093 24.375 17.8752V9.2085C24.3837 8.57249 24.1401 7.95893 23.6975 7.50211C23.2549 7.04528 22.6493 6.7824 22.0134 6.771V6.771Z" fill="white"/>
<path d="M1.625 10.2918V17.8752C1.625 17.947 1.65353 18.0159 1.70433 18.0667C1.75512 18.1175 1.824 18.146 1.89583 18.146H8.39583C8.46766 18.146 8.53655 18.1175 8.58734 18.0667C8.63813 18.0159 8.66667 17.947 8.66667 17.8752V10.2918C8.66667 9.35805 8.29572 8.46251 7.63544 7.80222C6.97515 7.14194 6.07962 6.771 5.14583 6.771C4.21205 6.771 3.31651 7.14194 2.65623 7.80222C1.99594 8.46251 1.625 9.35805 1.625 10.2918V10.2918ZM6.77083 15.1668C6.77083 15.3105 6.71377 15.4483 6.61218 15.5498C6.5106 15.6514 6.37283 15.7085 6.22917 15.7085H4.0625C3.91884 15.7085 3.78107 15.6514 3.67948 15.5498C3.5779 15.4483 3.52083 15.3105 3.52083 15.1668C3.52083 15.0232 3.5779 14.8854 3.67948 14.7838C3.78107 14.6822 3.91884 14.6252 4.0625 14.6252H6.22917C6.37283 14.6252 6.5106 14.6822 6.61218 14.7838C6.71377 14.8854 6.77083 15.0232 6.77083 15.1668Z" fill="white"/>
</svg>
