<svg width="24" height="24" viewBox="0 0 24 24" fill="none" xmlns="http://www.w3.org/2000/svg">
<g clip-path="url(#clip0_479_20374)">
<path d="M12 0C9.62663 0 7.30655 0.703788 5.33316 2.02236C3.35977 3.34094 1.8217 5.21509 0.913451 7.4078C0.00519943 9.60051 -0.232441 12.0133 0.230582 14.3411C0.693605 16.6689 1.83649 18.8071 3.51472 20.4853C5.19295 22.1635 7.33115 23.3064 9.65892 23.7694C11.9867 24.2324 14.3995 23.9948 16.5922 23.0866C18.7849 22.1783 20.6591 20.6402 21.9776 18.6668C23.2962 16.6935 24 14.3734 24 12C23.9966 8.81846 22.7312 5.76821 20.4815 3.51852C18.2318 1.26883 15.1815 0.00344108 12 0V0ZM12 5C12.7911 5 13.5645 5.2346 14.2223 5.67412C14.8801 6.11365 15.3928 6.73836 15.6955 7.46927C15.9983 8.20017 16.0775 9.00444 15.9231 9.78036C15.7688 10.5563 15.3878 11.269 14.8284 11.8284C14.269 12.3878 13.5563 12.7688 12.7804 12.9231C12.0044 13.0775 11.2002 12.9983 10.4693 12.6955C9.73837 12.3928 9.11365 11.8801 8.67413 11.2223C8.2346 10.5645 8.00001 9.79113 8.00001 9C8.00001 7.93913 8.42143 6.92172 9.17158 6.17157C9.92172 5.42143 10.9391 5 12 5V5ZM12 20C10.7937 20.0026 9.60256 19.7312 8.51642 19.2063C7.43029 18.6814 6.47753 17.9168 5.73 16.97C7.56958 15.6892 9.75692 15.0018 11.9984 15C14.24 14.9983 16.4284 15.6822 18.27 16.96C17.5239 17.9091 16.5717 18.676 15.4854 19.2027C14.3991 19.7294 13.2072 20.0021 12 20V20Z" fill="#DBDBDB"/>
</g>
<defs>
<clipPath id="clip0_479_20374">
<rect width="24" height="24" fill="white"/>
</clipPath>
</defs>
</svg>
