<svg width="24" height="24" viewBox="0 0 24 24" fill="none" xmlns="http://www.w3.org/2000/svg">
<path d="M12.6898 15.3099C12.9294 15.0954 13.0958 14.8114 13.1657 14.4975C13.2357 14.1837 13.2056 13.8558 13.0798 13.5599C12.9617 13.256 12.7518 12.9965 12.4794 12.8173C12.2071 12.6381 11.8856 12.5481 11.5598 12.5599H10.7998C10.7216 12.5627 10.6436 12.5494 10.5708 12.5207C10.4979 12.492 10.4318 12.4487 10.3764 12.3933C10.321 12.338 10.2777 12.2718 10.249 12.199C10.2204 12.1261 10.207 12.0481 10.2098 11.9699V11.2099C10.2226 10.8893 10.1368 10.5724 9.96402 10.302C9.79123 10.0316 9.53973 9.82064 9.24339 9.69753C8.94705 9.57442 8.6201 9.54507 8.30658 9.61344C7.99305 9.6818 7.708 9.8446 7.48981 10.0799L6.99981 10.7199C6.94493 10.7755 6.87954 10.8197 6.80744 10.8499C6.73533 10.88 6.65796 10.8955 6.57981 10.8955C6.50166 10.8955 6.42429 10.88 6.35219 10.8499C6.28009 10.8197 6.2147 10.7755 6.15981 10.7199V10.7199L5.64981 10.1499C5.42763 9.93931 5.14872 9.79827 4.84742 9.74414C4.54612 9.69 4.23556 9.72513 3.95396 9.84521C3.67237 9.96529 3.43202 10.1651 3.26249 10.42C3.09297 10.6749 3.00166 10.9738 2.99981 11.2799V11.9999C3.00502 12.0788 2.99345 12.1579 2.96587 12.232C2.93829 12.3062 2.89533 12.3736 2.83981 12.4299C2.78515 12.4877 2.71796 12.5322 2.64341 12.5599C2.56887 12.5876 2.48895 12.5979 2.40981 12.5899H1.64981C1.32677 12.5713 1.00592 12.6536 0.731716 12.8254C0.457511 12.9972 0.243518 13.25 0.119375 13.5488C-0.00476827 13.8476 -0.0329163 14.1777 0.0388293 14.4932C0.110575 14.8087 0.278663 15.0941 0.519813 15.3099L1.07981 15.8199C1.1394 15.8725 1.18712 15.9371 1.21981 16.0095C1.2525 16.0819 1.26941 16.1605 1.26941 16.2399C1.26941 16.3194 1.2525 16.3979 1.21981 16.4703C1.18712 16.5427 1.1394 16.6074 1.07981 16.6599L0.519813 17.1699C0.279516 17.3851 0.111856 17.6696 0.0399225 17.9841C-0.0320114 18.2985 -0.00468185 18.6276 0.118148 18.9259C0.240977 19.2242 0.453266 19.4771 0.72578 19.6497C0.998294 19.8224 1.31763 19.9063 1.63981 19.8899H2.39981C2.47872 19.8847 2.55784 19.8963 2.63195 19.9238C2.70607 19.9514 2.7735 19.9944 2.82981 20.0499C2.88432 20.1069 2.92663 20.1745 2.95414 20.2484C2.98165 20.3223 2.99379 20.4011 2.98981 20.4799V21.2399C2.97803 21.5657 3.06798 21.8871 3.24718 22.1595C3.42638 22.4319 3.68593 22.6417 3.98981 22.7599C4.28571 22.8857 4.61358 22.9158 4.92742 22.8458C5.24126 22.7759 5.52534 22.6095 5.73981 22.3699L6.24981 21.7999C6.36197 21.69 6.51276 21.6284 6.66981 21.6284C6.82686 21.6284 6.97766 21.69 7.08981 21.7999L7.59981 22.3699C7.7475 22.5304 7.92681 22.6585 8.12645 22.7463C8.32608 22.8341 8.54173 22.8796 8.75981 22.8799C8.96565 22.8786 9.16932 22.8379 9.35981 22.7599C9.66456 22.643 9.92496 22.4335 10.1044 22.1608C10.2837 21.8881 10.3731 21.566 10.3598 21.2399V20.4799C10.3552 20.4002 10.3681 20.3204 10.3974 20.2462C10.4268 20.1719 10.472 20.1049 10.5298 20.0499C10.5838 19.9941 10.6494 19.9508 10.722 19.9232C10.7946 19.8955 10.8724 19.8842 10.9498 19.8899H11.7098C12.0305 19.9027 12.3473 19.8169 12.6177 19.6441C12.8881 19.4713 13.0991 19.2198 13.2222 18.9235C13.3453 18.6271 13.3746 18.3002 13.3063 17.9867C13.2379 17.6731 13.0751 17.3881 12.8398 17.1699L12.2698 16.6599C12.2129 16.6057 12.1677 16.5406 12.1367 16.4684C12.1058 16.3962 12.0898 16.3185 12.0898 16.2399C12.0898 16.1614 12.1058 16.0836 12.1367 16.0114C12.1677 15.9392 12.2129 15.8741 12.2698 15.8199L12.6898 15.3099ZM6.59981 19.1799C6.01834 19.1799 5.44992 19.0075 4.96644 18.6844C4.48296 18.3614 4.10613 17.9022 3.88361 17.365C3.66109 16.8278 3.60286 16.2366 3.7163 15.6663C3.82974 15.096 4.10975 14.5722 4.52092 14.161C4.93209 13.7498 5.45594 13.4698 6.02625 13.3564C6.59655 13.243 7.18769 13.3012 7.7249 13.5237C8.26212 13.7462 8.72128 14.123 9.04433 14.6065C9.36738 15.09 9.53981 15.6584 9.53981 16.2399C9.53981 16.626 9.46377 17.0083 9.31602 17.365C9.16827 17.7217 8.95171 18.0458 8.67871 18.3188C8.4057 18.5918 8.0816 18.8084 7.7249 18.9561C7.3682 19.1039 6.9859 19.1799 6.59981 19.1799V19.1799Z" fill="#DBDBDB"/>
<path d="M23.4801 8.68999L22.9201 8.17999C22.8605 8.12744 22.8128 8.06281 22.7801 7.9904C22.7474 7.91798 22.7305 7.83944 22.7305 7.75999C22.7305 7.68054 22.7474 7.602 22.7801 7.52959C22.8128 7.45717 22.8605 7.39254 22.9201 7.33999L23.4801 6.82999C23.7204 6.61475 23.888 6.33031 23.96 6.01583C24.0319 5.70136 24.0046 5.37231 23.8818 5.07401C23.7589 4.77571 23.5466 4.52283 23.2741 4.35018C23.0016 4.17753 22.6823 4.09362 22.3601 4.10999H21.6001C21.5238 4.11696 21.4468 4.1079 21.3742 4.0834C21.3016 4.05889 21.2349 4.01949 21.1784 3.9677C21.1219 3.91592 21.0769 3.8529 21.0462 3.78269C21.0155 3.71248 20.9998 3.63662 21.0001 3.55999V2.79999C21.0129 2.47935 20.9271 2.1625 20.7543 1.89209C20.5815 1.62169 20.33 1.41073 20.0337 1.28762C19.7373 1.16451 19.4104 1.13516 19.0969 1.20352C18.7833 1.27189 18.4983 1.43469 18.2801 1.66999L17.7701 2.23999C17.6579 2.34993 17.5071 2.41151 17.3501 2.41151C17.193 2.41151 17.0422 2.34993 16.9301 2.23999V2.23999L16.4201 1.66999C16.1988 1.45269 15.9181 1.3058 15.6134 1.24784C15.3088 1.18988 14.9938 1.22346 14.7081 1.34434C14.4225 1.46522 14.1791 1.66798 14.0086 1.92704C13.8381 2.1861 13.7482 2.48986 13.7501 2.79999V3.55999C13.7554 3.63978 13.7428 3.71974 13.7134 3.79411C13.684 3.86847 13.6385 3.93538 13.5801 3.98999C13.5265 4.04638 13.461 4.09002 13.3883 4.11771C13.3156 4.1454 13.2376 4.15643 13.1601 4.14999H12.4001C12.0794 4.13721 11.7626 4.223 11.4922 4.39579C11.2218 4.56858 11.0108 4.82008 10.8877 5.11641C10.7646 5.41275 10.7353 5.7397 10.8036 6.05323C10.872 6.36676 11.0348 6.65181 11.2701 6.86999L11.8401 7.37999C11.897 7.43416 11.9423 7.49932 11.9732 7.57152C12.0041 7.64371 12.0201 7.72144 12.0201 7.79999C12.0201 7.87854 12.0041 7.95627 11.9732 8.02846C11.9423 8.10066 11.897 8.16582 11.8401 8.21999L11.2701 8.72999C11.0348 8.94818 10.872 9.23323 10.8036 9.54675C10.7353 9.86028 10.7646 10.1872 10.8877 10.4836C11.0108 10.7799 11.2218 11.0314 11.4922 11.2042C11.7626 11.377 12.0794 11.4628 12.4001 11.45H13.1601C13.2374 11.4462 13.3146 11.4585 13.3868 11.486C13.4591 11.5135 13.5249 11.5558 13.5801 11.61C13.6379 11.665 13.6831 11.732 13.7125 11.8063C13.7418 11.8805 13.7547 11.9603 13.7501 12.04V12.8C13.7373 13.1206 13.8231 13.4375 13.9959 13.7079C14.1687 13.9783 14.4202 14.1893 14.7165 14.3124C15.0129 14.4355 15.3398 14.4648 15.6533 14.3965C15.9669 14.3281 16.2519 14.1653 16.4701 13.93L16.9801 13.36C17.0922 13.2501 17.243 13.1885 17.4001 13.1885C17.5571 13.1885 17.7079 13.2501 17.8201 13.36L18.3301 13.93C18.477 14.0914 18.6562 14.2202 18.856 14.3081C19.0558 14.3959 19.2718 14.4409 19.4901 14.44C19.6928 14.4397 19.8934 14.3989 20.0801 14.32C20.384 14.2018 20.6435 13.992 20.8227 13.7196C21.0019 13.4472 21.0919 13.1258 21.0801 12.8L21.0001 12C20.9961 11.9212 21.0083 11.8424 21.0358 11.7685C21.0633 11.6946 21.1056 11.627 21.1601 11.57C21.216 11.5139 21.2834 11.4706 21.3576 11.443C21.4318 11.4154 21.5111 11.4041 21.5901 11.41H22.3501C22.6723 11.4264 22.9916 11.3424 23.2641 11.1698C23.5366 10.9972 23.7489 10.7443 23.8718 10.446C23.9946 10.1477 24.0219 9.81863 23.95 9.50415C23.878 9.18967 23.7104 8.90523 23.4701 8.68999H23.4801ZM17.4001 10.69C16.8186 10.69 16.2502 10.5176 15.7667 10.1945C15.2832 9.87146 14.9064 9.4123 14.6839 8.87508C14.4614 8.33787 14.4031 7.74673 14.5166 7.17643C14.63 6.60612 14.91 6.08226 15.3212 5.6711C15.7324 5.25993 16.2562 4.97992 16.8265 4.86648C17.3968 4.75304 17.988 4.81126 18.5252 5.03379C19.0624 5.25631 19.5216 5.63313 19.8446 6.11661C20.1677 6.60009 20.3401 7.16851 20.3401 7.74999C20.3414 8.13692 20.2663 8.5203 20.1192 8.87815C19.972 9.236 19.7557 9.56129 19.4825 9.83535C19.2094 10.1094 18.8848 10.3269 18.5275 10.4752C18.1701 10.6236 17.787 10.7 17.4001 10.7V10.69Z" fill="#DBDBDB"/>
</svg>
