<svg width="24" height="24" viewBox="0 0 24 24" fill="none" xmlns="http://www.w3.org/2000/svg">
<g clip-path="url(#clip0_479_23170)">
<path d="M20.0053 14.5715C18.6553 14.5804 17.3406 14.1402 16.2682 13.32C16.1913 13.263 16.0981 13.2322 16.0024 13.2322C15.9067 13.2322 15.8136 13.263 15.7367 13.32C14.9932 13.8938 14.1233 14.2817 13.1996 14.4515C13.1028 14.4744 13.0165 14.5291 12.9544 14.6067C12.8922 14.6844 12.8579 14.7806 12.8567 14.88V18C12.8567 18.2274 12.7664 18.4454 12.6057 18.6061C12.4449 18.7669 12.2269 18.8572 11.9996 18.8572H5.14244C4.91511 18.8572 4.69709 18.7669 4.53635 18.6061C4.3756 18.4454 4.2853 18.2274 4.2853 18V15C4.28538 14.8893 4.24259 14.7828 4.16589 14.7029C4.08919 14.623 3.98453 14.5759 3.87387 14.5715C3.3291 14.5558 2.78814 14.4752 2.26244 14.3315C2.20413 14.3014 2.13947 14.2857 2.07387 14.2857C2.00826 14.2857 1.94361 14.3014 1.8853 14.3315C1.83302 14.3723 1.7905 14.4242 1.76084 14.4835C1.73118 14.5428 1.71514 14.608 1.71387 14.6743V22.6458C1.71831 22.9854 1.85519 23.3098 2.09535 23.55C2.33552 23.7901 2.65997 23.927 2.99958 23.9315H20.9996C21.3392 23.927 21.6636 23.7901 21.9038 23.55C22.144 23.3098 22.2809 22.9854 22.2853 22.6458V14.7429C22.284 14.6766 22.268 14.6114 22.2383 14.5521C22.2087 14.4928 22.1661 14.4408 22.1139 14.4C22.0556 14.37 21.9909 14.3543 21.9253 14.3543C21.8597 14.3543 21.795 14.37 21.7367 14.4C21.1701 14.5358 20.5876 14.5935 20.0053 14.5715Z" fill="#373737"/>
<path d="M24 8.26288C24.001 7.89603 23.9431 7.53139 23.8286 7.18288L21.9429 1.54288C21.7944 1.09235 21.5071 0.700408 21.1222 0.42324C20.7372 0.146072 20.2744 -0.00208146 19.8 2.20942e-05H4.20001C3.72566 -0.00208146 3.26283 0.146072 2.87787 0.42324C2.49292 0.700408 2.20561 1.09235 2.05716 1.54288L0.171441 7.18288C0.056887 7.53139 -0.000991842 7.89603 1.28584e-05 8.26288V8.57145C0.0831915 9.55256 0.548476 10.4617 1.29561 11.103C2.04274 11.7444 3.01192 12.0665 3.9943 12C4.6942 12.0174 5.38704 11.8566 6.00776 11.5327C6.62848 11.2089 7.15671 10.7326 7.54287 10.1486C7.59134 10.0747 7.65749 10.014 7.73532 9.97211C7.81314 9.9302 7.90019 9.90837 7.98858 9.90859C8.07756 9.90501 8.16587 9.92539 8.24428 9.96761C8.32268 10.0098 8.38831 10.0723 8.4343 10.1486C8.82995 10.7272 9.36254 11.1991 9.98465 11.5221C10.6068 11.8451 11.2991 12.0093 12 12C12.6999 12.0174 13.3928 11.8566 14.0135 11.5327C14.6342 11.2089 15.1624 10.7326 15.5486 10.1486C15.5959 10.0735 15.6618 10.012 15.7399 9.96995C15.818 9.9279 15.9056 9.90676 15.9943 9.90859C16.0833 9.90501 16.1716 9.92539 16.25 9.96761C16.3284 10.0098 16.394 10.0723 16.44 10.1486C16.8323 10.7305 17.3642 11.2049 17.9871 11.5283C18.61 11.8517 19.304 12.0139 20.0057 12C20.9881 12.0665 21.9573 11.7444 22.7044 11.103C23.4516 10.4617 23.9168 9.55256 24 8.57145V8.26288Z" fill="#373737"/>
</g>
<defs>
<clipPath id="clip0_479_23170">
<rect width="24" height="24" fill="white"/>
</clipPath>
</defs>
</svg>
