<svg width="68" height="68" viewBox="0 0 68 68" fill="none" xmlns="http://www.w3.org/2000/svg">
<circle cx="34" cy="34" r="34" fill="white"/>
<circle cx="34" cy="34" r="24" fill="#DBDBDB"/>
<g clip-path="url(#clip0_479_20280)">
<path d="M29.9372 24.7917H32.3747C32.8775 24.7917 33.3597 24.5919 33.7152 24.2364C34.0708 23.8809 34.2705 23.3986 34.2705 22.8958C34.2705 22.393 34.0708 21.9108 33.7152 21.5553C33.3597 21.1997 32.8775 21 32.3747 21H28.583C28.3675 21 28.1609 21.0856 28.0085 21.238C27.8561 21.3903 27.7705 21.597 27.7705 21.8125V26.1458H29.9372V24.7917Z" fill="white"/>
<path d="M43.0134 27.771H30.4575C30.4074 27.7706 30.3582 27.7847 30.316 27.8116C30.2737 27.8386 30.2401 27.8771 30.2192 27.9227C30.1934 27.9651 30.1797 28.0138 30.1797 28.0635C30.1797 28.1132 30.1934 28.1619 30.2192 28.2043C30.9102 29.0863 31.2909 30.1715 31.3025 31.2918V38.8752C31.3025 38.947 31.3311 39.0159 31.3818 39.0667C31.4326 39.1175 31.5015 39.146 31.5734 39.146H34.5417C34.6135 39.146 34.6824 39.1745 34.7332 39.2253C34.784 39.2761 34.8125 39.345 34.8125 39.4168V45.9168C34.8125 46.2042 34.9267 46.4797 35.1298 46.6829C35.333 46.886 35.6085 47.0002 35.8959 47.0002C36.1832 47.0002 36.4587 46.886 36.6619 46.6829C36.865 46.4797 36.9792 46.2042 36.9792 45.9168V39.4168C36.9792 39.345 37.0077 39.2761 37.0585 39.2253C37.1093 39.1745 37.1782 39.146 37.25 39.146H45.1259C45.16 39.1446 45.1936 39.1365 45.2246 39.1221C45.2556 39.1078 45.2835 39.0874 45.3066 39.0623C45.3297 39.0371 45.3477 39.0076 45.3594 38.9755C45.3712 38.9434 45.3765 38.9093 45.375 38.8752V30.2085C45.3837 29.5725 45.1401 28.9589 44.6975 28.5021C44.2549 28.0453 43.6493 27.7824 43.0134 27.771V27.771Z" fill="white"/>
<path d="M22.625 31.2918V38.8752C22.625 38.947 22.6535 39.0159 22.7043 39.0667C22.7551 39.1175 22.824 39.146 22.8958 39.146H29.3958C29.4677 39.146 29.5366 39.1175 29.5873 39.0667C29.6381 39.0159 29.6667 38.947 29.6667 38.8752V31.2918C29.6667 30.358 29.2957 29.4625 28.6354 28.8022C27.9752 28.1419 27.0796 27.771 26.1458 27.771C25.2121 27.771 24.3165 28.1419 23.6562 28.8022C22.9959 29.4625 22.625 30.358 22.625 31.2918V31.2918ZM27.7708 36.1668C27.7708 36.3105 27.7138 36.4483 27.6122 36.5498C27.5106 36.6514 27.3728 36.7085 27.2292 36.7085H25.0625C24.9188 36.7085 24.7811 36.6514 24.6795 36.5498C24.5779 36.4483 24.5208 36.3105 24.5208 36.1668C24.5208 36.0232 24.5779 35.8854 24.6795 35.7838C24.7811 35.6822 24.9188 35.6252 25.0625 35.6252H27.2292C27.3728 35.6252 27.5106 35.6822 27.6122 35.7838C27.7138 35.8854 27.7708 36.0232 27.7708 36.1668Z" fill="white"/>
</g>
<defs>
<clipPath id="clip0_479_20280">
<rect width="26" height="26" fill="white" transform="translate(21 21)"/>
</clipPath>
</defs>
</svg>
